<svg width="111" height="103" viewBox="0 0 111 103" fill="none" xmlns="http://www.w3.org/2000/svg">
<g id="Group 1000003905">
<g id="Group 1000003903">
<rect id="Rectangle 773" width="60.1812" height="60.1812" rx="11.648" transform="matrix(-1 0 0 1 110.656 0)" fill="#D9D9D9"/>
<path id="Vector 3" d="M92.2796 93.6633L82.8244 47.1755C82.6405 46.271 81.8451 45.6211 80.922 45.6211H58.0721C56.5046 45.6211 55.5834 47.383 56.4779 48.6703L88.783 95.1581C89.9866 96.8901 92.7 95.7302 92.2796 93.6633Z" fill="#D9D9D9"/>
<rect id="Rectangle 773_2" width="60.1812" height="60.1812" rx="11.648" transform="matrix(-1 0 0 1 60.1816 0)" fill="#D9D9D9"/>
<path id="Vector 3_2" d="M41.803 93.6633L32.3479 47.1755C32.1639 46.271 31.3685 45.6211 30.4455 45.6211H7.59554C6.02799 45.6211 5.10681 47.383 6.00134 48.6703L38.3064 95.1581C39.5101 96.8901 42.2234 95.7302 41.803 93.6633Z" fill="#D9D9D9"/>
</g>
</g>
</svg>
