<svg xmlns="http://www.w3.org/2000/svg" viewBox="0 0 929.95 255.29"><defs><style>.cls-1,.cls-5{font-size:113px;}.cls-1{font-family:Poppins-Regular, Sofia Pro;}.cls-2{letter-spacing:-0.01em;}.cls-3{letter-spacing:-0.01em;}.cls-4{letter-spacing:-0.03em;}.cls-5{font-family:Poppins-SemiBold, Sofia Pro;font-weight:600;}.cls-6{letter-spacing:-0.01em;}.cls-7{letter-spacing:-0.01em;}.cls-8{letter-spacing:-0.01em;}.cls-10,.cls-9{fill:none;}.cls-10{stroke:#000;stroke-miterlimit:10;stroke-width:13px;}</style></defs><g id="Layer_4" data-name="Layer 4"><text class="cls-1" transform="translate(48.06 130.51)">An<tspan class="cls-2" x="135.6" y="0">s</tspan><tspan class="cls-3" x="183.74" y="0">w</tspan><tspan x="270.86" y="0">e</tspan><tspan class="cls-4" x="334.14" y="0">r</tspan></text><text class="cls-5" transform="translate(433.68 134.44)">O<tspan class="cls-6" x="89.04" y="0">v</tspan><tspan x="145.66" y="0">er</tspan><tspan class="cls-7" x="254.7" y="0">f</tspan></text><text class="cls-5" transform="translate(729.29 134.44)">l<tspan class="cls-3" x="28.7" y="0">o</tspan><tspan class="cls-8" x="93" y="0">w</tspan></text><rect class="cls-9" x="703.98" y="81.67" width="6.97" height="27.48"/><path class="cls-10" d="M477.5,167.45V185.3A16.45,16.45,0,0,1,474,195.43h0a33,33,0,0,1-14.69,10.69h0a29.3,29.3,0,0,1-10,1.77H201.85a16.45,16.45,0,0,0-9.07,2.73L99,272.73a.25.25,0,0,1-.38-.21l.73-65.1a0,0,0,0,0,0,0H63.78a41.14,41.14,0,0,1-14.52-2.64h0A23,23,0,0,1,39,197.09h0a14.41,14.41,0,0,1-2.92-8.68V54.91a24.09,24.09,0,0,1,3.65-12.74l.53-.84a20.23,20.23,0,0,1,10.49-8.39l.84-.29a39,39,0,0,1,12.84-2.17h387a35.16,35.16,0,0,1,8.36,1l2,.5a20.62,20.62,0,0,1,11.57,7.63h0a20,20,0,0,1,4,11.92l.08,13" transform="translate(-29.61 -23.98)"/></g></svg>
