<?xml version="1.0" encoding="utf-8"?>
<!-- Generator: Adobe Illustrator 26.3.1, SVG Export Plug-In . SVG Version: 6.00 Build 0)  -->
<svg version="1.1" id="Layer_1" xmlns="http://www.w3.org/2000/svg" xmlns:xlink="http://www.w3.org/1999/xlink" x="0px" y="0px"
	 viewBox="0 0 800 800" style="enable-background:new 0 0 800 800;" xml:space="preserve">
<style type="text/css">
	.st0{fill:#FFFFFF;}
	.st1{fill:url(#SVGID_1_);}
</style>
<g id="circle">
	<circle class="st0" cx="400" cy="400" r="400"/>
</g>
<g id="icon">
	
		<linearGradient id="SVGID_1_" gradientUnits="userSpaceOnUse" x1="84.2884" y1="725.2118" x2="739.4645" y2="86.0089" gradientTransform="matrix(1 0 0 -1 0 782.72)">
		<stop  offset="1" style="stop-color:#000000"/>
		<stop  offset="1" style="stop-color:#020202"/>
		<stop  offset="1" style="stop-color:#0A0A0A"/>
		<stop  offset="1" style="stop-color:#181818"/>
		<stop  offset="1" style="stop-color:#2B2B2B"/>
		<stop  offset="1" style="stop-color:#444444"/>
		<stop  offset="1" style="stop-color:#636363"/>
		<stop  offset="1" style="stop-color:#888888"/>
		<stop  offset="1" style="stop-color:#B3B3B3"/>
		<stop  offset="1" style="stop-color:#E2E2E2"/>
		<stop  offset="1" style="stop-color:#FFFFFF"/>
	</linearGradient>
	<path class="st1" d="M414.6,447.9l-43.1-119l-33.5-92.5H272l-84.8,234.3h59.7l14-41.4h87.4l14,41.4h60.4L414.6,447.9L414.6,447.9z
		 M276,385.2l28.7-85.8l29,85.8H276z M414.6,447.9l-43.1-119l-33.5-92.5H272l-84.8,234.3h59.7l14-41.4h87.4l14,41.4h60.4
		L414.6,447.9L414.6,447.9z M276,385.2l28.7-85.8l29,85.8H276z M414.6,447.9l-43.1-119 M593.9,291.1c-10.6-18.2-25-32.5-43.4-42.7
		c-18.4-10.2-38.5-15.3-60.6-15.3c-22,0-42.2,5.1-60.6,15.3c-18.4,10.2-32.9,24.5-43.7,42.7c-2,3.4-3.8,6.8-5.4,10.4l58.2,160.7
		c15.9,7.2,33.1,10.8,51.6,10.8c22,0,42.2-5.1,60.4-15.4c18.3-10.2,32.7-24.5,43.4-42.9c10.7-18.4,16-39,16-61.9
		C609.7,329.9,604.4,309.4,593.9,291.1z M534.8,402.3c-11.2,12.5-26.2,18.7-44.9,18.7c-18.7,0-34-6.2-45.2-18.5
		c-11.2-12.4-16.8-28.9-16.8-49.6c0-20.7,5.6-37.5,16.8-49.7c11.2-12.2,26.3-18.4,45.2-18.4c18.9,0,33.7,6.2,44.9,18.5
		c11.2,12.4,16.9,28.9,16.9,49.6C551.6,373.5,546,389.8,534.8,402.3z M272.4,688.1c-3.1,0-6.3-0.8-9.1-2.3c-6.2-3.3-10-9.8-10-16.8
		V555.7h-69.5c-35.6,0-64.5-29-64.5-64.5V213.1c0-35.5,28.9-64.4,64.4-64.5l432.5-1h0.2c17.2,0,33.4,6.7,45.6,18.8
		c12.2,12.2,19,28.4,19,45.7v279.2c0,35.6-29,64.5-64.5,64.5H482.5c-1.3,0-2.7,0.4-3.8,1.1L282.9,684.9
		C279.7,687,276.1,688.1,272.4,688.1L272.4,688.1z M616.2,183.2L616.2,183.2l-432.5,1c-15.9,0-28.7,13-28.7,28.8v278.1
		c0,15.9,12.9,28.8,28.8,28.8h85.5c10.9,0,19.7,8.9,19.7,19.7v98.5L459.2,527c7-4.5,15-7,23.3-7h133.7c15.9,0,28.8-12.9,28.8-28.8
		V212c0-7.7-3-15-8.5-20.4C631.2,186.2,623.9,183.2,616.2,183.2L616.2,183.2z"/>
</g>
</svg>
