<?xml version="1.0" encoding="utf-8"?>
<!-- Generator: Adobe Illustrator 26.3.1, SVG Export Plug-In . SVG Version: 6.00 Build 0)  -->
<svg version="1.1" id="Layer_1" xmlns="http://www.w3.org/2000/svg" xmlns:xlink="http://www.w3.org/1999/xlink" x="0px" y="0px"
	 viewBox="0 0 800 800" style="enable-background:new 0 0 800 800;" xml:space="preserve">
<style type="text/css">
	.st0{fill:#231F20;}
	.st1{fill:url(#SVGID_1_);}
</style>
<g id="circle">
	<circle class="st0" cx="400" cy="400" r="400"/>
</g>
<g id="icon">
	
		<linearGradient id="SVGID_1_" gradientUnits="userSpaceOnUse" x1="94.7238" y1="706.8286" x2="725.4842" y2="91.4461" gradientTransform="matrix(1 0 0 -1 0 782.72)">
		<stop  offset="2.000000e-02" style="stop-color:#FFFFFF"/>
		<stop  offset="0.27" style="stop-color:#FCFCFC"/>
		<stop  offset="0.4" style="stop-color:#F4F4F4"/>
		<stop  offset="0.51" style="stop-color:#E6E6E6"/>
		<stop  offset="0.6" style="stop-color:#D3D3D3"/>
		<stop  offset="0.69" style="stop-color:#BABABA"/>
		<stop  offset="0.76" style="stop-color:#9B9B9B"/>
		<stop  offset="0.84" style="stop-color:#767676"/>
		<stop  offset="0.9" style="stop-color:#4B4B4B"/>
		<stop  offset="0.97" style="stop-color:#1C1C1C"/>
		<stop  offset="1" style="stop-color:#000000"/>
	</linearGradient>
	<path class="st1" d="M412.7,451.8l-41.5-114.6L339,248.1h-63.6l-81.6,225.6h57.5l13.5-39.8H349l13.5,39.8h58.2L412.7,451.8
		L412.7,451.8z M279.3,391.4l27.6-82.6l27.9,82.6H279.3z M412.7,451.8l-41.5-114.6L339,248.1h-63.6l-81.6,225.6h57.5l13.5-39.8H349
		l13.5,39.8h58.2L412.7,451.8L412.7,451.8z M279.3,391.4l27.6-82.6l27.9,82.6H279.3z M412.7,451.8l-41.5-114.6 M585.3,300.8
		c-10.2-17.6-24.1-31.3-41.8-41.1c-17.7-9.8-37.1-14.8-58.3-14.8c-21.2,0-40.6,4.9-58.3,14.8c-17.7,9.9-31.7,23.6-42.1,41.1
		c-1.9,3.2-3.7,6.6-5.2,10l56,154.7c15.3,6.9,31.9,10.4,49.7,10.4c21.2,0,40.6-4.9,58.2-14.8c17.6-9.9,31.5-23.6,41.8-41.3
		c10.3-17.7,15.4-37.5,15.4-59.6S595.5,318.4,585.3,300.8z M528.4,407.8c-10.8,12-25.2,18-43.2,18s-32.7-5.9-43.5-17.8
		s-16.2-27.8-16.2-47.7s5.4-36.1,16.2-47.9s25.3-17.7,43.5-17.7c18.2,0,32.4,6,43.2,17.8c10.8,11.9,16.2,27.8,16.2,47.7
		S539.2,395.8,528.4,407.8z M275.9,683c-3,0-6-0.7-8.8-2.2c-6-3.2-9.7-9.4-9.7-16.2v-109h-66.9c-34.3,0-62.1-27.9-62.1-62.1V225.6
		c0-34.2,27.8-62,62-62.1l416.3-1h0.2c16.6,0,32.1,6.4,43.9,18.1c11.8,11.7,18.2,27.4,18.2,44v268.8c0,34.3-27.9,62.1-62.1,62.1
		H478.1c-1.3,0-2.6,0.4-3.6,1.1L285.9,679.9C282.9,682,279.4,683,275.9,683L275.9,683z M606.9,196.9L606.9,196.9l-416.4,1
		c-15.3,0-27.7,12.5-27.7,27.7v267.8c0,15.3,12.4,27.7,27.7,27.7h82.3c10.5,0,19,8.5,19,19V635l163.8-107.2
		c6.7-4.4,14.5-6.7,22.5-6.7h128.7c15.3,0,27.7-12.4,27.7-27.7V224.7c0-7.4-2.9-14.4-8.1-19.6C621.2,199.8,614.3,196.9,606.9,196.9
		L606.9,196.9z"/>
</g>
</svg>
