<svg width="23" height="22" viewBox="0 0 23 22" fill="none" xmlns="http://www.w3.org/2000/svg">
<path id="Vector" d="M2.71197 15.1146C4.30533 16.6404 6.42717 17.5563 8.67778 17.6899C10.9284 17.8235 13.1524 17.1654 14.9308 15.8397L21.05 21.6911C21.267 21.8916 21.5576 22.0025 21.8593 22C22.161 21.9975 22.4496 21.8817 22.663 21.6777C22.8763 21.4737 22.9973 21.1978 23 20.9093C23.0026 20.6208 22.8866 20.3428 22.677 20.1353L16.5578 14.2839C18.0057 12.5071 18.6902 10.269 18.4718 8.02619C18.2534 5.78336 17.1485 3.70467 15.3824 2.21405C13.6163 0.723431 11.3221 -0.0668296 8.9677 0.00443236C6.61326 0.0756943 4.37592 1.00311 2.71197 2.59755C1.8522 3.41928 1.17017 4.39494 0.704837 5.46881C0.239507 6.54267 0 7.69368 0 8.85608C0 10.0185 0.239507 11.1695 0.704837 12.2434C1.17017 13.3172 1.8522 14.2929 2.71197 15.1146ZM4.339 4.15558C5.47651 3.06787 6.97322 2.39095 8.57413 2.24016C10.175 2.08937 11.7811 2.47403 13.1187 3.32861C14.4563 4.18319 15.4426 5.45481 15.9096 6.92682C16.3767 8.39883 16.2956 9.98015 15.68 11.4014C15.0645 12.8226 13.9528 13.9958 12.5341 14.721C11.1155 15.4463 9.47774 15.6787 7.89996 15.3788C6.32217 15.0789 4.90195 14.2651 3.88127 13.0761C2.86058 11.8871 2.30258 10.3965 2.30234 8.85828C2.29918 7.98417 2.47759 7.11816 2.82721 6.3105C3.17683 5.50285 3.6907 4.76962 4.339 4.15338V4.15558Z" fill="#2D2D2D"/>
</svg>
